<svg width="0" height="0" class="hidden">
  <symbol xmlns="http://www.w3.org/2000/svg" preserveAspectRatio="xMidYMid" viewBox="0 0 38 38" id="goal">
    <circle cx="19" cy="19" r="16" fill="#ebebeb"></circle>
    <path d="M20.716 19.412l8.027 8.919-1.486 1.338L19 20.495l-8.257 9.174-1.486-1.338 8.092-8.992-11.768-5.431.838-1.816L18 17.437V5h2v12.544l11.641-4.477.718 1.866-11.643 4.479z" fill-rule="evenodd" fill="#d7d7d7"></path>
    <path d="M25.234 4.26l.058.182-6.045 4.133-5.72-3.69.413-1.055a15.955 15.955 0 0 1 11.294.43zM6.887 8.566l.949-.106 2.084 6.48-5.557 4.769-1.355-.867A15.921 15.921 0 0 1 6.887 8.566zm6.112 8.009l6.019-4.562 5.995 4.598-2.314 7.403-7.426-.022-2.274-7.417zm19.326 10.086l.155.934a16.024 16.024 0 0 1-8.643 6.657l-1.932-1.61 3.313-6.302 7.107.321zm-26.805.934l.155-.934 7.107-.321 3.313 6.302-1.932 1.61a16.024 16.024 0 0 1-8.643-6.657zM29.08 14.94l2.045-6.361A15.921 15.921 0 0 1 35 19c0 .166-.02.327-.025.493l-.338.216-5.557-4.769z"
      fill="#252525" fill-rule="evenodd"></path>
    <path d="M12.5 28C22.717 28 31 19.717 31 9.5c0-.378-.034-.748-.057-1.121C33.459 11.206 35 14.918 35 19c0 8.837-7.163 16-16 16-6.208 0-11.578-3.542-14.23-8.709A18.398 18.398 0 0 0 12.5 28z" opacity=".2" fill="#252525" fill-rule="evenodd"></path>
  </symbol>
  <symbol xmlns="http://www.w3.org/2000/svg" preserveAspectRatio="xMidYMid" viewBox="0 0 38 38" id="missed">
    <circle cx="18" cy="18" r="16" fill="#ebebeb"></circle>
    <path d="M19.716 18.412l8.027 8.919-1.486 1.338L18 19.495l-8.257 9.174-1.486-1.338 8.092-8.992-11.768-5.431.838-1.816L17 16.437V4h2v12.544l11.641-4.477.718 1.866-11.643 4.479z" fill-rule="evenodd" fill="#d7d7d7"></path>
    <path d="M24.234 3.26l.058.182-6.045 4.133-5.72-3.69.413-1.055a15.955 15.955 0 0 1 11.294.43zM5.887 7.566l.949-.106 2.084 6.48-5.557 4.769-1.355-.867A15.916 15.916 0 0 1 5.887 7.566zm6.112 8.009l6.019-4.562 5.995 4.598-2.314 7.403-7.426-.022-2.274-7.417zm19.326 10.086l.155.934a16.024 16.024 0 0 1-8.643 6.657l-1.932-1.61 3.312-6.302 7.108.321zm-26.805.934l.155-.934 7.107-.321 3.313 6.302-1.932 1.61a16.024 16.024 0 0 1-8.643-6.657zM28.08 13.94l2.045-6.361A15.921 15.921 0 0 1 34 18c0 .166-.02.327-.025.493l-.338.216-5.557-4.769z"
      fill="#252525" fill-rule="evenodd"></path>
    <path d="M11.5 27C21.717 27 30 18.717 30 8.5c0-.378-.034-.748-.057-1.121C32.459 10.206 34 13.918 34 18c0 8.837-7.163 16-16 16-6.208 0-11.578-3.542-14.23-8.709A18.398 18.398 0 0 0 11.5 27z" opacity=".2" fill="#252525" fill-rule="evenodd"></path>
    <circle cx="26" cy="26" r="8" fill="#c11920"></circle>
    <path d="M31.414 28.586l-2.828 2.828L26 28.828l-2.586 2.586-2.828-2.828L23.172 26l-2.586-2.586 2.828-2.828L26 23.172l2.586-2.586 2.828 2.828L28.828 26l2.586 2.586z" fill="#fff" fill-rule="evenodd"></path>
  </symbol>
  <symbol xmlns="http://www.w3.org/2000/svg" preserveAspectRatio="xMidYMid" viewBox="0 0 38 38" id="owngoal">
    <circle cx="19" cy="18" r="16" fill="#d1d1d1"></circle>
    <path d="M20.716 18.412l8.027 8.919-1.486 1.338L19 19.495l-8.257 9.174-1.486-1.338 8.092-8.992-11.768-5.431.838-1.816L18 16.437V4h2v12.544l11.641-4.477.718 1.866-11.643 4.479z" fill-rule="evenodd" opacity=".2"></path>
    <path d="M25.234 3.26l.058.182-6.045 4.133-5.72-3.69.413-1.055a15.955 15.955 0 0 1 11.294.43zM6.887 7.566l.949-.106 2.084 6.48-5.557 4.769-1.355-.867A15.916 15.916 0 0 1 6.887 7.566zm6.112 8.009l6.019-4.562 5.995 4.598-2.314 7.403-7.426-.022-2.274-7.417zm19.326 10.086l.155.934a16.024 16.024 0 0 1-8.643 6.657l-1.932-1.61 3.313-6.302 7.107.321zm-26.805.934l.155-.934 7.107-.321 3.313 6.302-1.932 1.61a16.024 16.024 0 0 1-8.643-6.657zM29.08 13.94l2.045-6.361A15.921 15.921 0 0 1 35 18c0 .166-.02.327-.025.493l-.338.216-5.557-4.769z"
      fill="#898989" fill-rule="evenodd"></path>
    <path d="M12.5 27C22.717 27 31 18.717 31 8.5c0-.378-.034-.748-.057-1.121C33.459 10.206 35 13.918 35 18c0 8.837-7.163 16-16 16-6.208 0-11.578-3.542-14.23-8.709A18.398 18.398 0 0 0 12.5 27z" fill="#252525" fill-rule="evenodd" opacity=".2"></path>
  </symbol>
  <symbol xmlns="http://www.w3.org/2000/svg" preserveAspectRatio="xMidYMid" viewBox="0 0 38 38" id="red">
    <path d="M12 3h12a4 4 0 0 1 4 4v24a4 4 0 0 1-4 4H12a4 4 0 0 1-4-4V7a4 4 0 0 1 4-4z" fill="#c11920" fill-rule="evenodd"></path>
  </symbol>
  <symbol xmlns="http://www.w3.org/2000/svg" preserveAspectRatio="xMidYMid" viewBox="0 0 38 38" id="yellow">
    <rect x="8" y="2" width="20" height="32" rx="4" ry="4" fill="#ffd143"></rect>
  </symbol>
</svg>